<?xml version="1.0" encoding="UTF-8" standalone="no"?>
<svg
   xmlns:dc="http://purl.org/dc/elements/1.1/"
   xmlns:cc="http://creativecommons.org/ns#"
   xmlns:rdf="http://www.w3.org/1999/02/22-rdf-syntax-ns#"
   xmlns:svg="http://www.w3.org/2000/svg"
   xmlns="http://www.w3.org/2000/svg"
   viewBox="0 0 554.55603 220.112"
   height="220.112"
   width="554.55603"
   xml:space="preserve"
   id="svg2"
   version="1.1"><metadata
     id="metadata8"><rdf:RDF><cc:Work
         rdf:about=""><dc:format>image/svg+xml</dc:format><dc:type
           rdf:resource="http://purl.org/dc/dcmitype/StillImage" /></cc:Work></rdf:RDF></metadata><defs
     id="defs6"><clipPath
       id="clipPath18"
       clipPathUnits="userSpaceOnUse"><path
         id="path16"
         d="M 0,165.084 H 415.917 V 0 H 0 Z" /></clipPath><clipPath
       id="clipPath30"
       clipPathUnits="userSpaceOnUse"><path
         id="path28"
         d="m 130.034,92.8661 h 5.291 v -2.5743 h -5.291 z" /></clipPath><linearGradient
       id="linearGradient44"
       spreadMethod="pad"
       gradientTransform="matrix(5.2913942,0,0,-5.2913942,130.03401,91.578926)"
       gradientUnits="userSpaceOnUse"
       y2="0"
       x2="1"
       y1="0"
       x1="0"><stop
         id="stop36"
         offset="0"
         style="stop-opacity:1;stop-color:#ffffff" /><stop
         id="stop38"
         offset="0.47860554"
         style="stop-opacity:1;stop-color:#231f20" /><stop
         id="stop40"
         offset="0.999314"
         style="stop-opacity:1;stop-color:#231f20" /><stop
         id="stop42"
         offset="1"
         style="stop-opacity:1;stop-color:#231f20" /></linearGradient><clipPath
       id="clipPath74"
       clipPathUnits="userSpaceOnUse"><path
         id="path72"
         d="M 89.1606,97.4212 H 135.325 V 87.3478 H 89.1606 Z" /></clipPath><clipPath
       id="clipPath98"
       clipPathUnits="userSpaceOnUse"><path
         id="path96"
         d="M 91.4749,96.4491 H 101.561 V 93.8186 H 91.4749 Z" /></clipPath><clipPath
       id="clipPath142"
       clipPathUnits="userSpaceOnUse"><path
         id="path140"
         d="m 93.1762,92.0431 h 8.8478 V 87.348 h -8.8478 z" /></clipPath><linearGradient
       id="linearGradient156"
       spreadMethod="pad"
       gradientTransform="matrix(8.8477077,0,0,-8.8477077,93.176239,89.695557)"
       gradientUnits="userSpaceOnUse"
       y2="0"
       x2="1"
       y1="0"
       x1="0"><stop
         id="stop148"
         offset="0"
         style="stop-opacity:1;stop-color:#ffffff" /><stop
         id="stop150"
         offset="0.47860554"
         style="stop-opacity:1;stop-color:#231f20" /><stop
         id="stop152"
         offset="0.999314"
         style="stop-opacity:1;stop-color:#231f20" /><stop
         id="stop154"
         offset="1"
         style="stop-opacity:1;stop-color:#231f20" /></linearGradient><clipPath
       id="clipPath182"
       clipPathUnits="userSpaceOnUse"><path
         id="path180"
         d="m 121.359,92.0891 h 8.912 v -4.7413 h -8.912 z" /></clipPath><linearGradient
       id="linearGradient196"
       spreadMethod="pad"
       gradientTransform="matrix(8.9117413,0,0,-8.9117413,121.35928,89.718452)"
       gradientUnits="userSpaceOnUse"
       y2="0"
       x2="1"
       y1="0"
       x1="0"><stop
         id="stop188"
         offset="0"
         style="stop-opacity:1;stop-color:#ffffff" /><stop
         id="stop190"
         offset="0.47860554"
         style="stop-opacity:1;stop-color:#231f20" /><stop
         id="stop192"
         offset="0.999314"
         style="stop-opacity:1;stop-color:#231f20" /><stop
         id="stop194"
         offset="1"
         style="stop-opacity:1;stop-color:#231f20" /></linearGradient><clipPath
       id="clipPath226"
       clipPathUnits="userSpaceOnUse"><path
         id="path224"
         d="m 89.9949,93.2849 h 2.2277 v -1.5615 h -2.2277 z" /></clipPath><clipPath
       id="clipPath242"
       clipPathUnits="userSpaceOnUse"><path
         id="path240"
         d="m 90.0205,93.2139 h 1.7252 v -1.3858 h -1.7252 z" /></clipPath><clipPath
       id="clipPath270"
       clipPathUnits="userSpaceOnUse"><path
         id="path268"
         d="m 131.844,95.1907 h 2.849 v -1.0666 h -2.849 z" /></clipPath><clipPath
       id="clipPath286"
       clipPathUnits="userSpaceOnUse"><path
         id="path284"
         d="m 132.175,94.5823 h 2.518 v -0.8596 h -2.518 z" /></clipPath><clipPath
       id="clipPath306"
       clipPathUnits="userSpaceOnUse"><path
         id="path304"
         d="m 101.598,87.1969 h 20.258 V 86.883 h -20.258 z" /></clipPath><clipPath
       id="clipPath358"
       clipPathUnits="userSpaceOnUse"><path
         id="path356"
         d="m 92.8517,95.2177 h 9.6273 v -2.3516 h -9.6273 z" /></clipPath><linearGradient
       id="linearGradient372"
       spreadMethod="pad"
       gradientTransform="matrix(0,-11.845523,-11.845523,0,97.665298,97.997971)"
       gradientUnits="userSpaceOnUse"
       y2="0"
       x2="1"
       y1="0"
       x1="0"><stop
         id="stop364"
         offset="0"
         style="stop-opacity:1;stop-color:#ffffff" /><stop
         id="stop366"
         offset="0.47860554"
         style="stop-opacity:1;stop-color:#231f20" /><stop
         id="stop368"
         offset="0.999314"
         style="stop-opacity:1;stop-color:#231f20" /><stop
         id="stop370"
         offset="1"
         style="stop-opacity:1;stop-color:#231f20" /></linearGradient><clipPath
       id="clipPath394"
       clipPathUnits="userSpaceOnUse"><path
         id="path392"
         d="m 93.622,96.2662 h 7.448 v -1.8239 h -7.448 z" /></clipPath><clipPath
       id="clipPath410"
       clipPathUnits="userSpaceOnUse"><path
         id="path408"
         d="m 124.879,95.73 h 9.066 v -0.7127 h -9.066 z" /></clipPath><linearGradient
       id="linearGradient424"
       spreadMethod="pad"
       gradientTransform="matrix(0,-11.847385,-11.847385,0,129.41173,97.998444)"
       gradientUnits="userSpaceOnUse"
       y2="0"
       x2="1"
       y1="0"
       x1="0"><stop
         id="stop416"
         offset="0"
         style="stop-opacity:1;stop-color:#ffffff" /><stop
         id="stop418"
         offset="0.47860554"
         style="stop-opacity:1;stop-color:#231f20" /><stop
         id="stop420"
         offset="0.999314"
         style="stop-opacity:1;stop-color:#231f20" /><stop
         id="stop422"
         offset="1"
         style="stop-opacity:1;stop-color:#231f20" /></linearGradient><linearGradient
       id="linearGradient472"
       spreadMethod="pad"
       gradientTransform="matrix(5.2647324,0,0,-5.2647324,95.072182,87.605019)"
       gradientUnits="userSpaceOnUse"
       y2="0"
       x2="1"
       y1="0"
       x1="0"><stop
         id="stop468"
         offset="0"
         style="stop-opacity:1;stop-color:#ffffff" /><stop
         id="stop470"
         offset="1"
         style="stop-opacity:1;stop-color:#848689" /></linearGradient><clipPath
       id="clipPath482"
       clipPathUnits="userSpaceOnUse"><path
         id="path480"
         d="M 0,165.084 H 415.917 V 0 H 0 Z" /></clipPath><linearGradient
       id="linearGradient592"
       spreadMethod="pad"
       gradientTransform="matrix(5.2647438,0,0,-5.2647438,123.21371,87.605019)"
       gradientUnits="userSpaceOnUse"
       y2="0"
       x2="1"
       y1="0"
       x1="0"><stop
         id="stop588"
         offset="0"
         style="stop-opacity:1;stop-color:#ffffff" /><stop
         id="stop590"
         offset="1"
         style="stop-opacity:1;stop-color:#848689" /></linearGradient><clipPath
       id="clipPath602"
       clipPathUnits="userSpaceOnUse"><path
         id="path600"
         d="M 0,165.084 H 415.917 V 0 H 0 Z" /></clipPath><clipPath
       id="clipPath698"
       clipPathUnits="userSpaceOnUse"><path
         id="path696"
         d="m 103.046,101.262 h 22.126 v -4.9179 h -22.126 z" /></clipPath><linearGradient
       id="linearGradient708"
       spreadMethod="pad"
       gradientTransform="matrix(1.7731649,-6.0681543,-6.0681543,-1.7731649,112.38121,103.18944)"
       gradientUnits="userSpaceOnUse"
       y2="0"
       x2="1"
       y1="0"
       x1="0"><stop
         id="stop704"
         offset="0"
         style="stop-opacity:1;stop-color:#ffffff" /><stop
         id="stop706"
         offset="1"
         style="stop-opacity:1;stop-color:#231f20" /></linearGradient><clipPath
       id="clipPath730"
       clipPathUnits="userSpaceOnUse"><path
         id="path728"
         d="m 103.026,101.262 h 22.477 v -5.0791 h -22.477 z" /></clipPath><clipPath
       id="clipPath750"
       clipPathUnits="userSpaceOnUse"><path
         id="path748"
         d="m 103.372,97.8355 h 1.049 v -1.6337 h -1.049 z" /></clipPath><clipPath
       id="clipPath774"
       clipPathUnits="userSpaceOnUse"><path
         id="path772"
         d="m 103.57,97.739 h 0.938 v -0.992 h -0.938 z" /></clipPath><clipPath
       id="clipPath790"
       clipPathUnits="userSpaceOnUse"><path
         id="path788"
         d="m 103.57,96.8526 h 1.181 v -0.8081 h -1.181 z" /></clipPath><clipPath
       id="clipPath810"
       clipPathUnits="userSpaceOnUse"><path
         id="path808"
         d="m 102.742,101.253 h 22.607 V 88.1078 h -22.607 z" /></clipPath><clipPath
       id="clipPath826"
       clipPathUnits="userSpaceOnUse"><path
         id="path824"
         d="m 103.092,95.6796 h 21.737 v -1.8968 h -21.737 z" /></clipPath><linearGradient
       id="linearGradient840"
       spreadMethod="pad"
       gradientTransform="matrix(0,-11.845249,-11.845249,0,113.96045,97.99791)"
       gradientUnits="userSpaceOnUse"
       y2="0"
       x2="1"
       y1="0"
       x1="0"><stop
         id="stop832"
         offset="0"
         style="stop-opacity:1;stop-color:#ffffff" /><stop
         id="stop834"
         offset="0.47860554"
         style="stop-opacity:1;stop-color:#231f20" /><stop
         id="stop836"
         offset="0.999314"
         style="stop-opacity:1;stop-color:#231f20" /><stop
         id="stop838"
         offset="1"
         style="stop-opacity:1;stop-color:#231f20" /></linearGradient><clipPath
       id="clipPath874"
       clipPathUnits="userSpaceOnUse"><path
         id="path872"
         d="m 110.393,94.7047 h 2.561 v -0.2079 h -2.561 z" /></clipPath><clipPath
       id="clipPath890"
       clipPathUnits="userSpaceOnUse"><path
         id="path888"
         d="m 110.388,94.7047 h 2.719 v -0.5248 h -2.719 z" /></clipPath><clipPath
       id="clipPath922"
       clipPathUnits="userSpaceOnUse"><path
         id="path920"
         d="m 121.209,94.7047 h 2.561 v -0.2079 h -2.561 z" /></clipPath><clipPath
       id="clipPath938"
       clipPathUnits="userSpaceOnUse"><path
         id="path936"
         d="m 121.204,94.7047 h 2.719 v -0.5248 h -2.719 z" /></clipPath></defs><g
     transform="matrix(1.3333333,0,0,-1.3333333,0,220.112)"
     id="g10"><g
       id="g12"><g
         clip-path="url(#clipPath18)"
         id="g14"><g
           transform="translate(134.8292,92.8661)"
           id="g20"><path
             id="path22"
             style="fill:#285dab;fill-opacity:1;fill-rule:nonzero;stroke:none"
             d="m 0,0 v 2.48 c 0,0 -0.033,0.494 -0.978,0.688 -0.943,0.194 -5.872,1.387 -5.872,1.387 0,0 -4.995,3.643 -6.687,4.07 -1.691,0.428 -4.779,0.511 -5.7,0.463 0,0 -5.588,0.014 -7.536,-0.721 -1.949,-0.734 -5.416,-4.369 -6.731,-4.794 -1.314,-0.426 -9.057,-2.05 -10.17,-2.76 0,0 -0.866,-0.373 -1.082,-1.019 -0.215,-0.646 -0.369,-1.866 -0.369,-1.866 0,0 -0.446,-0.31 -0.535,-0.521 -0.089,-0.211 0.535,-2.573 0.535,-2.573 0,0 0.086,-0.353 0.331,-0.352 0.045,0 1.401,0 3.587,0 0.041,0.5 0.2,1.874 0.761,2.885 0.697,1.259 2.492,1.311 3.406,1.287 2.575,-0.067 2.924,-0.897 3.328,-1.751 0.276,-0.585 0.408,-1.747 0.463,-2.421 6.506,0 14.465,0 20.275,0 0.041,0.5 0.201,1.874 0.761,2.885 0.698,1.259 2.493,1.311 3.406,1.287 2.576,-0.067 2.925,-0.897 3.328,-1.751 0.277,-0.586 0.408,-1.747 0.464,-2.421 h 0.011 l 4.904,1.93 c 0,0 0.199,0.142 0.314,0.465 0.114,0.323 0.282,1.871 0.282,1.871 z" /></g><g
           id="g24"><g
             id="g26" /><g
             id="g58"><g
               style="opacity:0.39999402"
               id="g56"
               clip-path="url(#clipPath30)"><g
                 id="g54"><g
                   id="g52"><g
                     id="g50"><g
                       id="g48"><path
                         id="path46"
                         style="fill:url(#linearGradient44);stroke:none"
                         d="m 130.034,90.292 5.291,1.322 -0.496,1.252 z" /></g></g></g></g></g></g></g><g
           transform="translate(97.7888,91.5201)"
           id="g60"><path
             id="path62"
             style="fill:#231f20;fill-opacity:1;fill-rule:nonzero;stroke:none"
             d="m 0,0 c -0.913,0.024 -2.708,-0.028 -3.406,-1.287 -0.56,-1.011 -0.72,-2.385 -0.761,-2.885 2.053,0 4.838,0 7.959,0 C 3.736,-3.498 3.604,-2.337 3.328,-1.751 2.924,-0.897 2.575,-0.067 0,0" /></g><g
           transform="translate(126.0223,91.5201)"
           id="g64"><path
             id="path66"
             style="fill:#231f20;fill-opacity:1;fill-rule:nonzero;stroke:none"
             d="m 0,0 c -0.913,0.024 -2.708,-0.028 -3.406,-1.287 -0.56,-1.011 -0.72,-2.385 -0.761,-2.885 4.527,0 7.748,0 7.959,0 C 3.736,-3.498 3.604,-2.337 3.328,-1.751 2.924,-0.897 2.575,-0.067 0,0" /></g><g
           id="g68"><g
             id="g70" /><g
             id="g82"><g
               id="g80"
               clip-path="url(#clipPath74)"><g
                 id="g78"
                 transform="translate(134.8292,92.8661)"><path
                   id="path76"
                   style="fill:#285dab;fill-opacity:1;fill-rule:nonzero;stroke:none"
                   d="m 0,0 v 2.48 c 0,0 -0.033,0.494 -0.978,0.688 -0.943,0.194 -5.872,1.387 -5.872,1.387 0,0 5.458,-1.49 5.856,-1.531 0.398,-0.04 0.507,-0.337 0.507,-0.337 0,0 -2.515,-0.029 -2.873,-0.184 -0.358,-0.155 -0.209,-0.338 -0.209,-0.338 0,0 0.477,-0.697 0.686,-0.949 0.209,-0.251 0.547,-0.29 0.547,-0.29 L -0.477,0.452 -0.467,-0.255 0,-1.342 -4.742,-2.558 0.109,-1.552 c 0,0 -0.069,-0.987 -0.109,-1.345 -0.04,-0.358 -0.507,-0.578 -0.507,-0.578 l -4.354,-1.75 c 0,0 -0.06,1.157 -0.478,2.347 -0.417,1.191 -1.65,1.481 -2.565,1.591 -0.914,0.11 -2.445,0.18 -3.658,-0.449 -1.213,-0.629 -1.491,-3.115 -1.491,-3.115 -0.149,0.066 -0.169,0.265 -0.169,0.265 0.079,1.562 1.024,2.899 1.024,2.899 -1.154,-0.823 -1.472,-3.504 -1.472,-3.504 h -18.68 c -0.427,-0.019 -0.746,-0.175 -0.746,-0.175 0,0 0.04,1.491 -0.706,2.856 -0.746,1.365 -3.321,1.345 -3.778,1.344 -0.457,-0.001 -1.68,-0.047 -2.625,-0.896 -0.944,-0.85 -1.183,-3.197 -1.183,-3.197 0,0 -1.71,-0.019 -1.931,0 -0.221,0.02 -0.067,0.155 -0.067,0.155 0,0 0.229,0.455 0.348,0.802 0.119,0.346 -0.045,0.401 -0.045,0.401 0,0 -1.118,1.091 -1.272,1.272 -0.155,0.181 -0.533,0.061 -0.533,0.061 0,0 -0.645,-0.223 -0.681,-0.163 -0.035,0.06 0.036,-0.06 0,0.102 -0.035,0.161 0.513,0.511 0.513,0.511 l 1.811,0.196 -1.711,-0.06 v 0.469 c 0,0 1.192,0.242 1.494,0.296 0.302,0.054 1.07,0.74 1.299,0.989 0.229,0.249 0.333,0.52 0.333,0.52 -0.005,0.392 -0.522,0.324 -0.522,0.324 l -1.947,-0.324 c 0.042,0.09 0.481,0.409 0.706,0.568 -0.03,-0.016 -0.057,-0.032 -0.081,-0.047 0,0 -0.866,-0.373 -1.082,-1.019 -0.215,-0.646 -0.369,-1.866 -0.369,-1.866 0,0 -0.446,-0.31 -0.535,-0.521 -0.089,-0.211 0.535,-2.573 0.535,-2.573 0,0 0.086,-0.353 0.331,-0.352 0.045,0 1.401,0 3.587,0 0.041,0.5 0.2,1.874 0.761,2.885 0.697,1.259 2.492,1.311 3.406,1.287 2.575,-0.067 2.924,-0.897 3.328,-1.751 0.276,-0.585 0.408,-1.747 0.463,-2.421 6.506,0 14.465,0 20.275,0 0.041,0.5 0.201,1.874 0.761,2.885 0.698,1.259 2.493,1.311 3.406,1.287 2.576,-0.067 2.925,-0.897 3.328,-1.751 0.277,-0.586 0.408,-1.747 0.464,-2.421 h 0.011 l 4.904,1.93 c 0,0 0.199,0.142 0.314,0.465 0.114,0.323 0.282,1.871 0.282,1.871 z" /></g></g></g></g><g
           transform="translate(97.7888,91.5201)"
           id="g84"><path
             id="path86"
             style="fill:#262628;fill-opacity:1;fill-rule:nonzero;stroke:none"
             d="m 0,0 c -0.913,0.024 -2.708,-0.028 -3.406,-1.287 -0.56,-1.011 -0.72,-2.385 -0.761,-2.885 2.053,0 4.838,0 7.959,0 C 3.736,-3.498 3.604,-2.337 3.328,-1.751 2.924,-0.897 2.575,-0.067 0,0" /></g><g
           transform="translate(126.0223,91.5201)"
           id="g88"><path
             id="path90"
             style="fill:#262628;fill-opacity:1;fill-rule:nonzero;stroke:none"
             d="m 0,0 c -0.913,0.024 -2.708,-0.028 -3.406,-1.287 -0.56,-1.011 -0.72,-2.385 -0.761,-2.885 4.527,0 7.748,0 7.959,0 C 3.736,-3.498 3.604,-2.337 3.328,-1.751 2.924,-0.897 2.575,-0.067 0,0" /></g><g
           id="g92"><g
             id="g94" /><g
             id="g106"><g
               style="opacity:0.39999402"
               id="g104"
               clip-path="url(#clipPath98)"><g
                 id="g102"
                 transform="translate(101.5439,96.3049)"><path
                   id="path100"
                   style="fill:#2f3740;fill-opacity:1;fill-rule:nonzero;stroke:none"
                   d="M 0,0 C -0.063,0.037 -0.112,0.088 -0.151,0.144 -0.165,0.141 -0.179,0.137 -0.192,0.133 c 0.04,-0.059 0.09,-0.114 0.154,-0.155 -0.068,-0.099 -0.459,-0.623 -1.176,-0.876 -0.319,-0.113 -1.67,-0.318 -3.235,-0.556 -1.961,-0.298 -4.32,-0.657 -5.52,-0.966 -0.034,-0.021 -0.067,-0.043 -0.1,-0.066 1.155,0.314 3.603,0.686 5.626,0.994 1.567,0.238 2.92,0.444 3.243,0.558 0.801,0.283 1.203,0.901 1.207,0.907 l 0.01,0.017 z" /></g></g></g></g><g
           transform="translate(89.2893,89.9962)"
           id="g108"><path
             id="path110"
             style="fill:#414142;fill-opacity:1;fill-rule:nonzero;stroke:none"
             d="m 0,0 c 0,0 -0.048,-0.054 -0.019,-0.208 0.028,-0.154 0.493,-1.923 0.493,-1.923 0,0 0.077,-0.253 0.357,-0.26 h 0.736 c 0,0 0.358,0.018 0.498,0.276 0.139,0.259 0.258,0.703 0.258,0.703 0,0 0.129,0.181 -0.189,0.512 -0.318,0.331 -1.084,1.071 -1.084,1.071 0,0 -0.077,0.121 -0.386,0.044 C 0.355,0.137 0,0 0,0" /></g><g
           transform="translate(89.5006,89.8349)"
           id="g112"><path
             id="path114"
             style="fill:#111112;fill-opacity:1;fill-rule:nonzero;stroke:none"
             d="m 0,0 c 0,0 -0.043,-0.048 -0.017,-0.185 0.025,-0.136 0.437,-1.706 0.437,-1.706 0,0 0.069,-0.224 0.317,-0.23 H 1.39 c 0,0 0.318,0.016 0.441,0.245 0.124,0.229 0.23,0.623 0.23,0.623 0,0 0.114,0.161 -0.168,0.455 -0.282,0.293 -0.961,0.95 -0.961,0.95 0,0 -0.069,0.107 -0.343,0.038 C 0.314,0.122 0,0 0,0" /></g><g
           transform="translate(89.7301,89.696)"
           id="g116"><path
             id="path118"
             style="fill:#353536;fill-opacity:1;fill-rule:nonzero;stroke:none"
             d="m 0,0 c 0,0 -0.037,-0.041 -0.015,-0.158 0.022,-0.116 0.374,-1.458 0.374,-1.458 0,0 0.058,-0.191 0.27,-0.196 h 0.559 c 0,0 0.271,0.013 0.377,0.209 0.105,0.196 0.196,0.533 0.196,0.533 0,0 0.098,0.137 -0.143,0.388 -0.242,0.251 -0.822,0.812 -0.822,0.812 0,0 -0.059,0.091 -0.293,0.033 C 0.269,0.104 0,0 0,0" /></g><g
           transform="translate(122.823,100.5247)"
           id="g120"><path
             id="path122"
             style="fill:#373736;fill-opacity:1;fill-rule:nonzero;stroke:none"
             d="m 0,0 c 0.822,-0.503 4.348,-3.058 4.348,-3.058 0,0 0.464,-0.284 0.808,-0.045 0,0 -4.341,3.165 -6.3,3.94 C -1.135,0.828 -0.811,0.496 0,0" /></g><g
           transform="translate(89.7689,90.7691)"
           id="g124"><path
             id="path126"
             style="fill:#006eb7;fill-opacity:1;fill-rule:nonzero;stroke:none"
             d="m 0,0 c 0,0 -0.38,-0.264 -0.508,-0.471 l 4.827,0.84 z" /></g><g
           transform="translate(102.5322,96.6903)"
           id="g128"><path
             id="path130"
             style="fill:#373736;fill-opacity:1;fill-rule:nonzero;stroke:none"
             d="M 0,0 C 0.635,0.411 4.059,3.329 4.628,4.082 2.722,2.901 0.126,0.317 -1.074,-0.201 v 0 c 0,0 0.403,-0.233 1.074,0.201" /></g><g
           transform="translate(97.8083,92.0389)"
           id="g132"><path
             id="path134"
             style="fill:#285dab;fill-opacity:1;fill-rule:nonzero;stroke:none"
             d="m 0,0 c -1.014,0.026 -3.008,-0.032 -3.782,-1.429 -0.646,-1.165 -0.812,-2.762 -0.85,-3.262 h 0.446 c 0.041,0.5 0.2,1.874 0.761,2.886 0.697,1.258 2.492,1.31 3.405,1.286 2.576,-0.067 2.925,-0.896 3.329,-1.751 0.276,-0.585 0.407,-1.746 0.463,-2.421 H 4.216 C 4.157,-3.952 4.011,-2.612 3.696,-1.945 3.248,-0.996 2.86,-0.075 0,0" /></g><g
           id="g136"><g
             id="g138" /><g
             id="g170"><g
               style="opacity:0.39999402"
               id="g168"
               clip-path="url(#clipPath142)"><g
                 id="g166"><g
                   id="g164"><g
                     id="g162"><g
                       id="g160"><path
                         id="path158"
                         style="fill:url(#linearGradient156);stroke:none"
                         d="M 97.808,92.039 C 96.794,92.065 94.8,92.007 94.026,90.61 93.38,89.445 93.214,87.848 93.176,87.348 h 0.446 c 0.041,0.5 0.2,1.874 0.761,2.885 0.697,1.259 2.493,1.311 3.406,1.287 2.575,-0.067 2.924,-0.897 3.328,-1.751 0.276,-0.585 0.408,-1.747 0.463,-2.421 h 0.444 c -0.059,0.739 -0.205,2.079 -0.519,2.746 -0.449,0.949 -0.836,1.87 -3.697,1.945" /></g></g></g></g></g></g></g><g
           transform="translate(126.0326,92.0849)"
           id="g172"><path
             id="path174"
             style="fill:#285dab;fill-opacity:1;fill-rule:nonzero;stroke:none"
             d="m 0,0 c -1.023,0.027 -3.034,-0.032 -3.816,-1.442 -0.653,-1.179 -0.82,-2.796 -0.857,-3.295 h 0.496 c 0.041,0.5 0.2,1.874 0.761,2.886 0.697,1.258 2.492,1.31 3.406,1.286 2.575,-0.067 2.924,-0.896 3.328,-1.751 0.276,-0.586 0.408,-1.747 0.463,-2.421 h 0.012 l 0.445,0.175 C 4.171,-3.795 4.023,-2.587 3.729,-1.962 3.276,-1.005 2.885,-0.075 0,0" /></g><g
           id="g176"><g
             id="g178" /><g
             id="g210"><g
               style="opacity:0.39999402"
               id="g208"
               clip-path="url(#clipPath182)"><g
                 id="g206"><g
                   id="g204"><g
                     id="g202"><g
                       id="g200"><path
                         id="path198"
                         style="fill:url(#linearGradient196);stroke:none"
                         d="m 126.033,92.085 c -1.024,0.026 -3.035,-0.032 -3.816,-1.442 -0.653,-1.179 -0.82,-2.796 -0.858,-3.295 h 0.497 c 0.041,0.5 0.2,1.874 0.761,2.885 0.697,1.259 2.492,1.311 3.405,1.287 2.576,-0.067 2.925,-0.897 3.328,-1.751 0.277,-0.586 0.408,-1.747 0.464,-2.421 h 0.011 l 0.446,0.175 c -0.067,0.767 -0.215,1.975 -0.51,2.599 -0.452,0.958 -0.843,1.888 -3.728,1.963" /></g></g></g></g></g></g></g><g
           transform="translate(90.4725,93.0374)"
           id="g212"><path
             id="path214"
             style="fill:#4a4b4c;fill-opacity:1;fill-rule:nonzero;stroke:none"
             d="m 0,0 c 0,0 -0.16,-0.012 -0.231,-0.162 -0.072,-0.15 -0.368,-1.219 -0.368,-1.358 0,-0.138 1.5,0.255 1.66,0.327 0.657,0.296 1.325,1.163 1.325,1.183 0,0.019 0.2,0.354 -0.323,0.369 C 1.539,0.374 0,0 0,0" /></g><g
           transform="translate(90.8963,93.0097)"
           id="g216"><path
             id="path218"
             style="fill:#111112;fill-opacity:1;fill-rule:nonzero;stroke:none"
             d="m 0,0 c 0,0 -0.123,-0.009 -0.177,-0.124 -0.055,-0.115 -0.281,-0.933 -0.281,-1.039 0,-0.106 1.147,0.195 1.27,0.25 0.502,0.227 1.014,0.89 1.014,0.905 0,0.015 0.153,0.271 -0.247,0.283 C 1.178,0.286 0,0 0,0" /></g><g
           id="g220"><g
             id="g222" /><g
             id="g234"><g
               style="opacity:0.19999701"
               id="g232"
               clip-path="url(#clipPath226)"><g
                 id="g230"
                 transform="translate(92.1928,93.2849)"><path
                   id="path228"
                   style="fill:#f6f6f6;fill-opacity:1;fill-rule:nonzero;stroke:none"
                   d="m 0,0 c 0,0 -1.745,-0.26 -1.849,-0.398 -0.104,-0.137 -0.349,-1.163 -0.349,-1.163 0,0 1.047,0.477 1.522,0.903 C -0.201,-0.231 0.03,0 0.03,0 Z" /></g></g></g></g><g
           id="g236"><g
             id="g238" /><g
             id="g250"><g
               style="opacity:0.80000299"
               id="g248"
               clip-path="url(#clipPath242)"><g
                 id="g246"
                 transform="translate(90.8365,92.8687)"><path
                   id="path244"
                   style="fill:#f6f6f6;fill-opacity:1;fill-rule:nonzero;stroke:none"
                   d="M 0,0 C 0.263,0.135 0.55,0.244 0.836,0.324 0.86,0.331 0.885,0.338 0.909,0.345 0.385,0.258 -0.423,0.111 -0.493,0.019 -0.576,-0.092 -0.751,-0.776 -0.816,-1.041 -0.624,-0.626 -0.44,-0.226 0,0" /></g></g></g></g><g
           transform="translate(131.8367,95.1823)"
           id="g252"><path
             id="path254"
             style="fill:#b51b1c;fill-opacity:1;fill-rule:nonzero;stroke:none"
             d="m 0,0 c 0,0 -0.265,-0.064 -0.252,-0.206 0.014,-0.142 0.676,-0.787 0.676,-0.787 0,0 0.08,-0.066 0.332,-0.169 0.252,-0.102 1.909,-0.567 1.909,-0.567 0,0 0.184,-0.037 0.327,-0.014 v 1.907 c 0,0 -10e-4,0.024 -0.014,0.063 C 2.978,0.227 1.061,0.207 0,0" /></g><g
           transform="translate(131.8367,95.1823)"
           id="g256"><path
             id="path258"
             style="fill:#880c09;fill-opacity:1;fill-rule:nonzero;stroke:none"
             d="m 0,0 c 0,0 -0.265,-0.064 -0.252,-0.206 0.014,-0.142 0.676,-0.787 0.676,-0.787 0,0 0.08,-0.066 0.332,-0.169 0.252,-0.102 1.909,-0.567 1.909,-0.567 0,0 0.184,-0.037 0.327,-0.014 v 1.907 c 0,0 -10e-4,0.024 -0.014,0.063 C 2.978,0.227 1.061,0.207 0,0" /></g><g
           transform="translate(131.9598,95.0828)"
           id="g260"><path
             id="path262"
             style="fill:#b51b1c;fill-opacity:1;fill-rule:nonzero;stroke:none"
             d="m 0,0 c 0,0 -0.248,-0.052 -0.236,-0.167 0.013,-0.115 0.633,-0.638 0.633,-0.638 0,0 0.074,-0.053 0.31,-0.136 0.236,-0.084 1.786,-0.46 1.786,-0.46 0,0 0.173,-0.03 0.307,-0.011 v 1.545 c 0,0 -0.002,0.019 -0.013,0.051 C 2.787,0.184 0.992,0.167 0,0" /></g><g
           id="g264"><g
             id="g266" /><g
             id="g278"><g
               id="g276"
               clip-path="url(#clipPath270)"><g
                 id="g274"
                 transform="translate(131.9828,94.7307)"><path
                   id="path272"
                   style="fill:#b51b1c;fill-opacity:1;fill-rule:nonzero;stroke:none"
                   d="m 0,0 c 0,0 -0.312,0.226 0,0.284 0.311,0.058 2.512,0.193 2.711,0.174 v -1.065 c 0,0 -0.06,0.542 -0.464,0.62 C 1.843,0.09 0,0 0,0" /></g></g></g></g><g
           id="g280"><g
             id="g282" /><g
             id="g294"><g
               style="opacity:0.39999402"
               id="g292"
               clip-path="url(#clipPath286)"><g
                 id="g290"
                 transform="translate(132.6796,94.2211)"><path
                   id="path288"
                   style="fill:#b75526;fill-opacity:1;fill-rule:nonzero;stroke:none"
                   d="m 0,0 c -0.271,0.051 -0.505,0.361 -0.505,0.361 0,0 0.246,-0.167 0.597,-0.238 0.351,-0.072 1.922,-0.304 1.922,-0.304 v -0.317 z" /></g></g></g></g><g
           transform="translate(121.8555,87.1914)"
           id="g296"><path
             id="path298"
             style="fill:#b6b7b9;fill-opacity:1;fill-rule:nonzero;stroke:none"
             d="m 0,0 c 0,-0.17 -0.694,-0.308 -0.863,-0.308 h -18.499 c -0.169,0 -0.896,0.138 -0.896,0.308 0,0.17 0.727,0.308 0.896,0.308 H -0.863 C -0.694,0.308 0,0.17 0,0" /></g><g
           id="g300"><g
             id="g302" /><g
             id="g314"><g
               style="opacity:0.5"
               id="g312"
               clip-path="url(#clipPath306)"><g
                 id="g310"
                 transform="translate(101.5985,87.1969)"><path
                   id="path308"
                   style="fill:#b6b7b9;fill-opacity:1;fill-rule:nonzero;stroke:none"
                   d="m 0,0 c 0,-0.002 -0.001,-0.004 -0.001,-0.006 0,-0.17 0.727,-0.308 0.896,-0.308 h 18.499 c 0.169,0 0.863,0.138 0.863,0.308 0,0.002 0,0.004 -0.001,0.006 z" /></g></g></g></g><g
           transform="translate(90.2726,89.8675)"
           id="g316"><path
             id="path318"
             style="fill:#000000;fill-opacity:1;fill-rule:nonzero;stroke:none"
             d="m 0,0 0.487,-1.984 h 0.158 c 0,0 0.016,10e-4 0.04,0.005 L 0.201,-0.006 C 0.163,0.009 0.1,0.02 0,0" /></g><g
           transform="translate(89.7301,89.696)"
           id="g320"><path
             id="path322"
             style="fill:#000000;fill-opacity:1;fill-rule:nonzero;stroke:none"
             d="m 0,0 c 0,0 -0.037,-0.041 -0.015,-0.158 0.022,-0.116 0.374,-1.458 0.374,-1.458 0,0 0.034,-0.111 0.145,-0.166 L 0.061,0.023 C 0.023,0.009 0,0 0,0" /></g><g
           transform="translate(90.6837,89.6728)"
           id="g324"><path
             id="path326"
             style="fill:#000000;fill-opacity:1;fill-rule:nonzero;stroke:none"
             d="m 0,0 0.427,-1.74 c 0.051,0.023 0.104,0.056 0.146,0.105 L 0.225,-0.22 C 0.143,-0.14 0.065,-0.063 0,0" /></g><g
           transform="translate(89.9414,89.7716)"
           id="g328"><path
             id="path330"
             style="fill:#000000;fill-opacity:1;fill-rule:nonzero;stroke:none"
             d="M 0,0 0.463,-1.888 H 0.654 L 0.178,0.056 C 0.115,0.038 0.055,0.018 0,0" /></g><g
           transform="translate(91.4907,88.6258)"
           id="g332"><path
             id="path334"
             style="fill:#000000;fill-opacity:1;fill-rule:nonzero;stroke:none"
             d="m 0,0 c 0,0 0.098,0.137 -0.143,0.388 -0.059,0.061 -0.137,0.14 -0.223,0.225 l 0.243,-0.986 C -0.052,-0.194 0,0 0,0" /></g><g
           transform="translate(89.7907,89.7186)"
           id="g336"><path
             id="path338"
             style="fill:#313132;fill-opacity:1;fill-rule:nonzero;stroke:none"
             d="m 0,0 0.443,-1.805 c 0.034,-0.017 0.075,-0.029 0.126,-0.03 H 0.614 L 0.151,0.053 C 0.09,0.033 0.038,0.014 0,0" /></g><g
           transform="translate(90.2331,89.8587)"
           id="g340"><path
             id="path342"
             style="fill:#313132;fill-opacity:1;fill-rule:nonzero;stroke:none"
             d="M 0,0 C -0.038,-0.009 -0.076,-0.02 -0.114,-0.031 L 0.363,-1.975 H 0.526 L 0.04,0.009 C 0.027,0.006 0.014,0.004 0,0" /></g><g
           transform="translate(90.5262,89.8259)"
           id="g344"><path
             id="path346"
             style="fill:#313132;fill-opacity:1;fill-rule:nonzero;stroke:none"
             d="m 0,0 c 0,0 -0.013,0.02 -0.052,0.036 l 0.484,-1.974 c 0.036,0.006 0.093,0.018 0.152,0.045 l -0.427,1.74 C 0.064,-0.062 0,0 0,0" /></g><g
           transform="translate(91.3672,88.2523)"
           id="g348"><path
             id="path350"
             style="fill:#313132;fill-opacity:1;fill-rule:nonzero;stroke:none"
             d="M 0,0 -0.242,0.987 C -0.312,1.056 -0.386,1.13 -0.458,1.2 l 0.347,-1.415 c 0.014,0.017 0.028,0.035 0.039,0.056 C -0.047,-0.112 -0.023,-0.057 0,0" /></g><g
           id="g352"><g
             id="g354" /><g
             id="g386"><g
               style="opacity:0.39999402"
               id="g384"
               clip-path="url(#clipPath358)"><g
                 id="g382"><g
                   id="g380"><g
                     id="g378"><g
                       id="g376"><path
                         id="path374"
                         style="fill:url(#linearGradient372);stroke:none"
                         d="m 102.343,95.218 0.136,-1.435 -9.627,-0.917 c 0,0 0.132,0.531 0.928,0.953 0.795,0.421 8.563,1.399 8.563,1.399" /></g></g></g></g></g></g></g><g
           id="g388"><g
             id="g390" /><g
             id="g402"><g
               style="opacity:0.39999402"
               id="g400"
               clip-path="url(#clipPath394)"><g
                 id="g398"
                 transform="translate(101.0703,96.2662)"><path
                   id="path396"
                   style="fill:#ffffff;fill-opacity:1;fill-rule:nonzero;stroke:none"
                   d="m 0,0 -7.448,-1.824 c 0,0 5.078,1.062 5.844,1.237 C -0.59,-0.355 0,0 0,0" /></g></g></g></g><g
           id="g404"><g
             id="g406" /><g
             id="g438"><g
               style="opacity:0.39999402"
               id="g436"
               clip-path="url(#clipPath410)"><g
                 id="g434"><g
                   id="g432"><g
                     id="g430"><g
                       id="g428"><path
                         id="path426"
                         style="fill:url(#linearGradient424);stroke:none"
                         d="m 125.488,95.73 -0.609,-0.713 9.066,0.663 z" /></g></g></g></g></g></g></g><g
           transform="translate(101.2726,87.6027)"
           id="g440"><path
             id="path442"
             style="fill:#363635;fill-opacity:1;fill-rule:nonzero;stroke:none"
             d="m 0,0 c 0,-1.919 -1.598,-3.474 -3.568,-3.474 -1.971,0 -3.569,1.555 -3.569,3.474 0,1.918 1.598,3.474 3.569,3.474 C -1.598,3.474 0,1.918 0,0" /></g><g
           transform="translate(101.2728,87.6052)"
           id="g444"><path
             id="path446"
             style="fill:#4f4e4d;fill-opacity:1;fill-rule:nonzero;stroke:none"
             d="m 0,0 c 0,-1.919 -1.598,-3.474 -3.568,-3.474 -1.971,0 -3.569,1.555 -3.569,3.474 0,1.918 1.598,3.474 3.569,3.474 C -1.598,3.474 0,1.918 0,0" /></g><g
           transform="translate(101.0703,87.6076)"
           id="g448"><path
             id="path450"
             style="fill:#2d2d2c;fill-opacity:1;fill-rule:nonzero;stroke:none"
             d="m 0,0 c 0,-1.81 -1.507,-3.277 -3.366,-3.277 -1.859,0 -3.366,1.467 -3.366,3.277 0,1.809 1.507,3.277 3.366,3.277 C -1.507,3.277 0,1.809 0,0" /></g><g
           transform="translate(100.5879,87.6052)"
           id="g452"><path
             id="path454"
             style="fill:#909295;fill-opacity:1;fill-rule:nonzero;stroke:none"
             d="m 0,0 c 0,-1.55 -1.291,-2.807 -2.884,-2.807 -1.592,0 -2.883,1.257 -2.883,2.807 0,1.55 1.291,2.807 2.883,2.807 C -1.291,2.807 0,1.55 0,0" /></g></g></g><g
       id="g456"><g
         id="g458"><g
           id="g464"><g
             id="g466"><path
               id="path474"
               style="fill:url(#linearGradient472);stroke:none"
               d="m 95.072,87.605 c 0,-1.416 1.179,-2.562 2.632,-2.562 v 0 c 1.454,0 2.633,1.146 2.633,2.562 v 0 c 0,1.416 -1.179,2.562 -2.633,2.562 v 0 c -1.453,0 -2.632,-1.146 -2.632,-2.562" /></g></g></g></g><g
       id="g476"><g
         clip-path="url(#clipPath482)"
         id="g478"><g
           transform="translate(99.0242,89.1316)"
           id="g484"><path
             id="path486"
             style="fill:#151513;fill-opacity:1;fill-rule:nonzero;stroke:none"
             d="M 0,0 C 0.004,0.03 0.002,0.06 -0.011,0.089 -0.291,0.334 -0.653,0.493 -1.052,0.523 -1.089,0.515 -1.123,0.5 -1.152,0.477 -1.166,0.457 -1.177,0.437 -1.188,0.415 V -1.01 c 0.008,-0.02 0.018,-0.037 0.03,-0.055 0.008,-0.004 0.016,-0.008 0.025,-0.012 0.024,0.002 0.047,0.007 0.07,0.014 l 1.05,1.023 C -0.008,-0.027 -0.003,-0.014 0,0" /></g><g
           transform="translate(99.7942,87.7243)"
           id="g488"><path
             id="path490"
             style="fill:#151513;fill-opacity:1;fill-rule:nonzero;stroke:none"
             d="M 0,0 C 0.025,0.018 0.044,0.042 0.056,0.07 0.037,0.437 -0.103,0.798 -0.364,1.093 -0.396,1.113 -0.432,1.126 -0.469,1.13 -0.493,1.126 -0.515,1.119 -0.539,1.11 L -1.574,0.103 C -1.582,0.084 -1.589,0.065 -1.593,0.045 -1.59,0.036 -1.587,0.027 -1.584,0.018 c 0.019,-0.015 0.039,-0.028 0.06,-0.037 h 1.485 C -0.025,-0.014 -0.013,-0.008 0,0" /></g><g
           transform="translate(99.2916,86.2442)"
           id="g492"><path
             id="path494"
             style="fill:#151513;fill-opacity:1;fill-rule:nonzero;stroke:none"
             d="M 0,0 C 0.031,-0.004 0.062,-0.002 0.092,0.01 0.349,0.278 0.518,0.627 0.556,1.015 0.548,1.051 0.533,1.085 0.51,1.114 0.49,1.127 0.469,1.139 0.446,1.149 L -1.017,1.174 C -1.037,1.167 -1.055,1.158 -1.073,1.147 -1.078,1.139 -1.082,1.13 -1.086,1.122 -1.085,1.099 -1.08,1.076 -1.073,1.054 l 1.032,-1.04 C -0.027,0.008 -0.014,0.003 0,0" /></g><g
           transform="translate(97.8721,85.6097)"
           id="g496"><path
             id="path498"
             style="fill:#151513;fill-opacity:1;fill-rule:nonzero;stroke:none"
             d="M 0,0 C 0.019,-0.024 0.043,-0.043 0.073,-0.054 0.449,-0.03 0.818,0.112 1.117,0.37 1.138,0.401 1.151,0.436 1.154,0.473 1.149,0.495 1.142,0.518 1.133,0.54 L 0.083,1.534 C 0.064,1.541 0.043,1.547 0.023,1.551 0.014,1.548 0.005,1.545 -0.004,1.542 -0.019,1.524 -0.032,1.504 -0.042,1.483 L -0.021,0.037 C -0.015,0.024 -0.008,0.012 0,0" /></g><g
           transform="translate(96.3845,89.1316)"
           id="g500"><path
             id="path502"
             style="fill:#151513;fill-opacity:1;fill-rule:nonzero;stroke:none"
             d="M 0,0 C -0.004,0.03 -0.001,0.06 0.011,0.089 0.292,0.334 0.653,0.493 1.052,0.523 1.089,0.515 1.123,0.5 1.153,0.477 1.166,0.457 1.177,0.437 1.188,0.415 V -1.01 C 1.18,-1.03 1.17,-1.047 1.159,-1.065 1.151,-1.069 1.142,-1.073 1.133,-1.077 1.11,-1.075 1.086,-1.07 1.063,-1.063 L 0.013,-0.04 C 0.008,-0.027 0.003,-0.014 0,0" /></g><g
           transform="translate(95.615,87.7243)"
           id="g504"><path
             id="path506"
             style="fill:#151513;fill-opacity:1;fill-rule:nonzero;stroke:none"
             d="m 0,0 c -0.025,0.018 -0.045,0.042 -0.057,0.07 0.02,0.367 0.16,0.728 0.421,1.023 C 0.396,1.113 0.431,1.126 0.468,1.13 0.492,1.126 0.515,1.119 0.539,1.11 L 1.574,0.103 C 1.582,0.084 1.588,0.065 1.592,0.045 1.59,0.036 1.587,0.027 1.583,0.018 1.565,0.003 1.545,-0.01 1.524,-0.019 H 0.038 C 0.025,-0.014 0.012,-0.008 0,0" /></g><g
           transform="translate(96.1172,86.2442)"
           id="g508"><path
             id="path510"
             style="fill:#151513;fill-opacity:1;fill-rule:nonzero;stroke:none"
             d="m 0,0 c -0.031,-0.004 -0.062,-0.002 -0.092,0.01 -0.257,0.268 -0.426,0.617 -0.463,1.005 0.007,0.036 0.022,0.07 0.046,0.099 0.019,0.013 0.04,0.025 0.063,0.035 L 1.017,1.174 C 1.037,1.167 1.055,1.158 1.074,1.147 1.078,1.139 1.082,1.13 1.086,1.122 1.085,1.099 1.08,1.076 1.073,1.054 L 0.041,0.014 C 0.027,0.008 0.014,0.003 0,0" /></g><g
           transform="translate(97.5374,85.6097)"
           id="g512"><path
             id="path514"
             style="fill:#151513;fill-opacity:1;fill-rule:nonzero;stroke:none"
             d="M 0,0 C -0.02,-0.024 -0.043,-0.043 -0.073,-0.054 -0.45,-0.03 -0.819,0.112 -1.118,0.37 -1.139,0.401 -1.151,0.436 -1.155,0.473 -1.15,0.495 -1.143,0.518 -1.133,0.54 l 1.05,0.994 c 0.019,0.007 0.039,0.013 0.059,0.017 C -0.014,1.548 -0.006,1.545 0.004,1.542 0.019,1.524 0.031,1.504 0.041,1.483 L 0.02,0.037 C 0.014,0.024 0.008,0.012 0,0" /></g><g
           transform="translate(97.708,87.582)"
           id="g516"><path
             id="path518"
             style="fill:#151513;fill-opacity:1;fill-rule:nonzero;stroke:none"
             d="M 0,0 Z" /></g><g
           transform="translate(97.708,87.582)"
           id="g520"><path
             id="path522"
             style="fill:#151513;fill-opacity:1;fill-rule:nonzero;stroke:none"
             d="M 0,0 Z" /></g><g
           transform="translate(98.4776,87.6052)"
           id="g524"><path
             id="path526"
             style="fill:#969792;fill-opacity:1;fill-rule:nonzero;stroke:none"
             d="m 0,0 c 0,-0.416 -0.346,-0.753 -0.773,-0.753 -0.427,0 -0.774,0.337 -0.774,0.753 0,0.416 0.347,0.752 0.774,0.752 C -0.346,0.752 0,0.416 0,0" /></g><g
           transform="translate(98.2057,87.975)"
           id="g528"><path
             id="path530"
             style="fill:#c2c4c6;fill-opacity:1;fill-rule:nonzero;stroke:none"
             d="m 0,0 c 0,-0.052 -0.044,-0.094 -0.097,-0.094 -0.054,0 -0.096,0.042 -0.096,0.094 0,0.052 0.042,0.094 0.096,0.094 C -0.044,0.094 0,0.052 0,0" /></g><g
           transform="translate(97.804,88.109)"
           id="g532"><path
             id="path534"
             style="fill:#c2c4c6;fill-opacity:1;fill-rule:nonzero;stroke:none"
             d="m 0,0 c 0,-0.052 -0.043,-0.093 -0.096,-0.093 -0.053,0 -0.096,0.041 -0.096,0.093 0,0.052 0.043,0.094 0.096,0.094 C -0.043,0.094 0,0.052 0,0" /></g><g
           transform="translate(97.3964,87.9604)"
           id="g536"><path
             id="path538"
             style="fill:#c2c4c6;fill-opacity:1;fill-rule:nonzero;stroke:none"
             d="m 0,0 c 0,-0.051 -0.043,-0.093 -0.096,-0.093 -0.054,0 -0.097,0.042 -0.097,0.093 0,0.052 0.043,0.094 0.097,0.094 C -0.043,0.094 0,0.052 0,0" /></g><g
           transform="translate(98.2057,87.1557)"
           id="g540"><path
             id="path542"
             style="fill:#c2c4c6;fill-opacity:1;fill-rule:nonzero;stroke:none"
             d="m 0,0 c 0,0.052 -0.044,0.094 -0.097,0.094 -0.054,0 -0.096,-0.042 -0.096,-0.094 0,-0.051 0.042,-0.093 0.096,-0.093 C -0.044,-0.093 0,-0.051 0,0" /></g><g
           transform="translate(98.3943,87.5471)"
           id="g544"><path
             id="path546"
             style="fill:#c2c4c6;fill-opacity:1;fill-rule:nonzero;stroke:none"
             d="M 0,0 C 0,0.052 -0.044,0.094 -0.097,0.094 -0.15,0.094 -0.193,0.052 -0.193,0 c 0,-0.052 0.043,-0.093 0.096,-0.093 C -0.044,-0.093 0,-0.052 0,0" /></g><g
           transform="translate(97.2075,87.5471)"
           id="g548"><path
             id="path550"
             style="fill:#c2c4c6;fill-opacity:1;fill-rule:nonzero;stroke:none"
             d="m 0,0 c 0,0.052 -0.043,0.094 -0.096,0.094 -0.053,0 -0.097,-0.042 -0.097,-0.094 0,-0.052 0.044,-0.093 0.097,-0.093 C -0.043,-0.093 0,-0.052 0,0" /></g><g
           transform="translate(97.804,87.022)"
           id="g552"><path
             id="path554"
             style="fill:#c2c4c6;fill-opacity:1;fill-rule:nonzero;stroke:none"
             d="m 0,0 c 0,0.052 -0.043,0.093 -0.096,0.093 -0.053,0 -0.096,-0.041 -0.096,-0.093 0,-0.052 0.043,-0.094 0.096,-0.094 C -0.043,-0.094 0,-0.052 0,0" /></g><g
           transform="translate(97.3964,87.1704)"
           id="g556"><path
             id="path558"
             style="fill:#c2c4c6;fill-opacity:1;fill-rule:nonzero;stroke:none"
             d="M 0,0 C 0,0.051 -0.043,0.094 -0.096,0.094 -0.15,0.094 -0.193,0.051 -0.193,0 c 0,-0.052 0.043,-0.094 0.097,-0.094 C -0.043,-0.094 0,-0.052 0,0" /></g><g
           transform="translate(129.4141,87.6027)"
           id="g560"><path
             id="path562"
             style="fill:#363635;fill-opacity:1;fill-rule:nonzero;stroke:none"
             d="m 0,0 c 0,-1.919 -1.598,-3.474 -3.568,-3.474 -1.971,0 -3.569,1.555 -3.569,3.474 0,1.918 1.598,3.474 3.569,3.474 C -1.598,3.474 0,1.918 0,0" /></g><g
           transform="translate(129.4143,87.6052)"
           id="g564"><path
             id="path566"
             style="fill:#4f4e4d;fill-opacity:1;fill-rule:nonzero;stroke:none"
             d="m 0,0 c 0,-1.919 -1.598,-3.474 -3.568,-3.474 -1.971,0 -3.569,1.555 -3.569,3.474 0,1.918 1.598,3.474 3.569,3.474 C -1.598,3.474 0,1.918 0,0" /></g><g
           transform="translate(129.2117,87.6076)"
           id="g568"><path
             id="path570"
             style="fill:#2d2d2c;fill-opacity:1;fill-rule:nonzero;stroke:none"
             d="m 0,0 c 0,-1.81 -1.507,-3.277 -3.366,-3.277 -1.859,0 -3.366,1.467 -3.366,3.277 0,1.809 1.507,3.277 3.366,3.277 C -1.507,3.277 0,1.809 0,0" /></g><g
           transform="translate(128.7294,87.6052)"
           id="g572"><path
             id="path574"
             style="fill:#909295;fill-opacity:1;fill-rule:nonzero;stroke:none"
             d="m 0,0 c 0,-1.55 -1.291,-2.807 -2.884,-2.807 -1.592,0 -2.883,1.257 -2.883,2.807 0,1.55 1.291,2.807 2.883,2.807 C -1.291,2.807 0,1.55 0,0" /></g></g></g><g
       id="g576"><g
         id="g578"><g
           id="g584"><g
             id="g586"><path
               id="path594"
               style="fill:url(#linearGradient592);stroke:none"
               d="m 123.214,87.605 c 0,-1.416 1.178,-2.562 2.632,-2.562 v 0 c 1.454,0 2.633,1.146 2.633,2.562 v 0 c 0,1.416 -1.179,2.562 -2.633,2.562 v 0 c -1.454,0 -2.632,-1.146 -2.632,-2.562" /></g></g></g></g><g
       id="g596"><g
         clip-path="url(#clipPath602)"
         id="g598"><g
           transform="translate(127.1657,89.1316)"
           id="g604"><path
             id="path606"
             style="fill:#151513;fill-opacity:1;fill-rule:nonzero;stroke:none"
             d="M 0,0 C 0.004,0.03 0.002,0.06 -0.011,0.089 -0.291,0.334 -0.653,0.493 -1.052,0.523 -1.089,0.515 -1.123,0.5 -1.152,0.477 -1.166,0.457 -1.177,0.437 -1.188,0.415 V -1.01 c 0.008,-0.02 0.018,-0.037 0.03,-0.055 0.007,-0.004 0.016,-0.008 0.024,-0.012 0.025,0.002 0.048,0.007 0.071,0.014 l 1.05,1.023 C -0.008,-0.027 -0.004,-0.014 0,0" /></g><g
           transform="translate(127.9357,87.7243)"
           id="g608"><path
             id="path610"
             style="fill:#151513;fill-opacity:1;fill-rule:nonzero;stroke:none"
             d="M 0,0 C 0.025,0.018 0.045,0.042 0.057,0.07 0.037,0.437 -0.103,0.798 -0.364,1.093 -0.396,1.113 -0.432,1.126 -0.469,1.13 -0.493,1.126 -0.515,1.119 -0.538,1.11 L -1.574,0.103 C -1.582,0.084 -1.589,0.065 -1.593,0.045 -1.59,0.036 -1.587,0.027 -1.584,0.018 c 0.018,-0.015 0.039,-0.028 0.06,-0.037 h 1.485 C -0.025,-0.014 -0.012,-0.008 0,0" /></g><g
           transform="translate(127.433,86.2442)"
           id="g612"><path
             id="path614"
             style="fill:#151513;fill-opacity:1;fill-rule:nonzero;stroke:none"
             d="M 0,0 C 0.031,-0.004 0.062,-0.002 0.092,0.01 0.349,0.278 0.518,0.627 0.556,1.015 0.548,1.051 0.533,1.085 0.51,1.114 0.49,1.127 0.469,1.139 0.447,1.149 L -1.017,1.174 C -1.037,1.167 -1.055,1.158 -1.073,1.147 -1.078,1.139 -1.082,1.13 -1.086,1.122 -1.085,1.099 -1.08,1.076 -1.073,1.054 l 1.032,-1.04 C -0.027,0.008 -0.013,0.003 0,0" /></g><g
           transform="translate(126.0136,85.6097)"
           id="g616"><path
             id="path618"
             style="fill:#151513;fill-opacity:1;fill-rule:nonzero;stroke:none"
             d="M 0,0 C 0.019,-0.024 0.043,-0.043 0.073,-0.054 0.449,-0.03 0.818,0.112 1.117,0.37 1.138,0.401 1.15,0.436 1.154,0.473 1.149,0.495 1.142,0.518 1.133,0.54 L 0.083,1.534 C 0.063,1.541 0.043,1.547 0.023,1.551 0.014,1.548 0.005,1.545 -0.004,1.542 -0.019,1.524 -0.032,1.504 -0.042,1.483 L -0.021,0.037 C -0.015,0.024 -0.008,0.012 0,0" /></g><g
           transform="translate(124.5259,89.1316)"
           id="g620"><path
             id="path622"
             style="fill:#151513;fill-opacity:1;fill-rule:nonzero;stroke:none"
             d="M 0,0 C -0.004,0.03 -0.001,0.06 0.011,0.089 0.291,0.334 0.653,0.493 1.052,0.523 1.089,0.515 1.123,0.5 1.153,0.477 1.166,0.457 1.177,0.437 1.188,0.415 V -1.01 C 1.18,-1.03 1.17,-1.047 1.159,-1.065 1.151,-1.069 1.142,-1.073 1.133,-1.077 1.11,-1.075 1.086,-1.07 1.063,-1.063 L 0.013,-0.04 C 0.008,-0.027 0.003,-0.014 0,0" /></g><g
           transform="translate(123.7564,87.7243)"
           id="g624"><path
             id="path626"
             style="fill:#151513;fill-opacity:1;fill-rule:nonzero;stroke:none"
             d="m 0,0 c -0.025,0.018 -0.045,0.042 -0.057,0.07 0.02,0.367 0.16,0.728 0.421,1.023 C 0.396,1.113 0.431,1.126 0.468,1.13 0.492,1.126 0.515,1.119 0.539,1.11 L 1.574,0.103 C 1.582,0.084 1.588,0.065 1.592,0.045 1.59,0.036 1.587,0.027 1.583,0.018 1.565,0.003 1.545,-0.01 1.524,-0.019 H 0.038 C 0.025,-0.014 0.012,-0.008 0,0" /></g><g
           transform="translate(124.2585,86.2442)"
           id="g628"><path
             id="path630"
             style="fill:#151513;fill-opacity:1;fill-rule:nonzero;stroke:none"
             d="m 0,0 c -0.031,-0.004 -0.062,-0.002 -0.092,0.01 -0.257,0.268 -0.426,0.617 -0.463,1.005 0.007,0.036 0.022,0.07 0.046,0.099 0.019,0.013 0.041,0.025 0.063,0.035 L 1.017,1.174 C 1.037,1.167 1.055,1.158 1.074,1.147 1.078,1.139 1.082,1.13 1.087,1.122 1.085,1.099 1.08,1.076 1.073,1.054 L 0.041,0.014 C 0.027,0.008 0.014,0.003 0,0" /></g><g
           transform="translate(125.6788,85.6097)"
           id="g632"><path
             id="path634"
             style="fill:#151513;fill-opacity:1;fill-rule:nonzero;stroke:none"
             d="m 0,0 c -0.02,-0.024 -0.043,-0.043 -0.073,-0.054 -0.376,0.024 -0.746,0.166 -1.045,0.424 -0.021,0.031 -0.033,0.066 -0.037,0.103 0.005,0.022 0.012,0.045 0.022,0.067 l 1.05,0.994 c 0.019,0.007 0.039,0.013 0.059,0.017 C -0.014,1.548 -0.006,1.545 0.004,1.542 0.019,1.524 0.031,1.504 0.041,1.483 L 0.02,0.037 C 0.014,0.024 0.008,0.012 0,0" /></g><g
           transform="translate(125.8495,87.582)"
           id="g636"><path
             id="path638"
             style="fill:#151513;fill-opacity:1;fill-rule:nonzero;stroke:none"
             d="M 0,0 Z" /></g><g
           transform="translate(125.8495,87.582)"
           id="g640"><path
             id="path642"
             style="fill:#151513;fill-opacity:1;fill-rule:nonzero;stroke:none"
             d="M 0,0 Z" /></g><g
           transform="translate(126.6191,87.6052)"
           id="g644"><path
             id="path646"
             style="fill:#969792;fill-opacity:1;fill-rule:nonzero;stroke:none"
             d="m 0,0 c 0,-0.416 -0.346,-0.753 -0.773,-0.753 -0.427,0 -0.774,0.337 -0.774,0.753 0,0.416 0.347,0.752 0.774,0.752 C -0.346,0.752 0,0.416 0,0" /></g><g
           transform="translate(126.3471,87.975)"
           id="g648"><path
             id="path650"
             style="fill:#c2c4c6;fill-opacity:1;fill-rule:nonzero;stroke:none"
             d="m 0,0 c 0,-0.052 -0.044,-0.094 -0.097,-0.094 -0.053,0 -0.096,0.042 -0.096,0.094 0,0.052 0.043,0.094 0.096,0.094 C -0.044,0.094 0,0.052 0,0" /></g><g
           transform="translate(125.9454,88.109)"
           id="g652"><path
             id="path654"
             style="fill:#c2c4c6;fill-opacity:1;fill-rule:nonzero;stroke:none"
             d="m 0,0 c 0,-0.052 -0.043,-0.093 -0.096,-0.093 -0.053,0 -0.096,0.041 -0.096,0.093 0,0.052 0.043,0.094 0.096,0.094 C -0.043,0.094 0,0.052 0,0" /></g><g
           transform="translate(125.5379,87.9604)"
           id="g656"><path
             id="path658"
             style="fill:#c2c4c6;fill-opacity:1;fill-rule:nonzero;stroke:none"
             d="m 0,0 c 0,-0.051 -0.043,-0.093 -0.096,-0.093 -0.054,0 -0.097,0.042 -0.097,0.093 0,0.052 0.043,0.094 0.097,0.094 C -0.043,0.094 0,0.052 0,0" /></g><g
           transform="translate(126.3471,87.1557)"
           id="g660"><path
             id="path662"
             style="fill:#c2c4c6;fill-opacity:1;fill-rule:nonzero;stroke:none"
             d="M 0,0 C 0,0.052 -0.044,0.094 -0.097,0.094 -0.15,0.094 -0.193,0.052 -0.193,0 c 0,-0.051 0.043,-0.093 0.096,-0.093 C -0.044,-0.093 0,-0.051 0,0" /></g><g
           transform="translate(126.5356,87.5471)"
           id="g664"><path
             id="path666"
             style="fill:#c2c4c6;fill-opacity:1;fill-rule:nonzero;stroke:none"
             d="M 0,0 C 0,0.052 -0.044,0.094 -0.097,0.094 -0.15,0.094 -0.193,0.052 -0.193,0 c 0,-0.052 0.043,-0.093 0.096,-0.093 C -0.044,-0.093 0,-0.052 0,0" /></g><g
           transform="translate(125.3488,87.5471)"
           id="g668"><path
             id="path670"
             style="fill:#c2c4c6;fill-opacity:1;fill-rule:nonzero;stroke:none"
             d="m 0,0 c 0,0.052 -0.043,0.094 -0.096,0.094 -0.053,0 -0.096,-0.042 -0.096,-0.094 0,-0.052 0.043,-0.093 0.096,-0.093 C -0.043,-0.093 0,-0.052 0,0" /></g><g
           transform="translate(125.9454,87.022)"
           id="g672"><path
             id="path674"
             style="fill:#c2c4c6;fill-opacity:1;fill-rule:nonzero;stroke:none"
             d="m 0,0 c 0,0.052 -0.043,0.093 -0.096,0.093 -0.053,0 -0.096,-0.041 -0.096,-0.093 0,-0.052 0.043,-0.094 0.096,-0.094 C -0.043,-0.094 0,-0.052 0,0" /></g><g
           transform="translate(125.5379,87.1704)"
           id="g676"><path
             id="path678"
             style="fill:#c2c4c6;fill-opacity:1;fill-rule:nonzero;stroke:none"
             d="M 0,0 C 0,0.051 -0.043,0.094 -0.096,0.094 -0.15,0.094 -0.193,0.051 -0.193,0 c 0,-0.052 0.043,-0.094 0.097,-0.094 C -0.043,-0.094 0,-0.052 0,0" /></g><g
           transform="translate(113.9623,101.3611)"
           id="g680"><path
             id="path682"
             style="fill:#285dab;fill-opacity:1;fill-rule:nonzero;stroke:none"
             d="m 0,0 c 0,0 -5.278,0.093 -7.208,-1.365 -1.931,-1.459 -3.94,-3.286 -4.009,-3.82 -0.068,-0.534 0.578,-7.41 0.578,-7.41 0,0 0.069,-0.696 0.611,-0.634 H 5.37 c 0,0 0.747,0.028 0.985,0.5 0.398,0.787 0.299,0.774 4.801,6.886 0,0 0.263,0.281 0.415,0.76 0.108,0.341 0.141,1.064 0.141,1.064 0,0 0.045,0.623 -0.373,1.015 -0.417,0.391 -2.298,1.991 -3.685,2.461 C 6.004,0.016 0,0 0,0" /></g><g
           transform="translate(113.7711,101.3234)"
           id="g684"><path
             id="path686"
             style="fill:#373736;fill-opacity:1;fill-rule:nonzero;stroke:none"
             d="m 0,0 c -0.868,0 -5.282,-0.065 -6.993,-1.358 -2.398,-1.812 -3.94,-3.381 -3.993,-3.794 -0.067,-0.524 0.571,-7.334 0.577,-7.402 0.001,-0.006 0.066,-0.603 0.505,-0.603 0.02,0 0.041,10e-4 0.062,0.004 h 0.005 15.399 c 0.005,0 0.724,0.033 0.949,0.479 0.023,0.046 0.045,0.091 0.067,0.133 0.333,0.671 0.501,1.008 4.738,6.758 l 0.002,0.003 c 0.003,0.003 0.259,0.282 0.407,0.746 0.105,0.333 0.138,1.048 0.138,1.055 0.001,0.007 0.038,0.61 -0.36,0.984 -0.425,0.4 -2.295,1.987 -3.67,2.453 -1.551,0.526 -6.974,0.541 -7.587,0.541 H 0.191 C 0.19,-0.001 0.123,0 0,0 m -9.904,-13.234 c -0.511,0 -0.583,0.666 -0.584,0.673 -0.026,0.281 -0.645,6.887 -0.577,7.418 0.043,0.329 0.74,1.044 1.318,1.586 0.748,0.702 1.734,1.526 2.706,2.26 1.731,1.308 6.169,1.374 7.041,1.374 0.124,0 0.192,-0.001 0.192,-0.001 h 0.054 c 0.614,0 6.05,-0.015 7.613,-0.545 1.389,-0.471 3.271,-2.068 3.699,-2.47 0.426,-0.399 0.387,-1.019 0.385,-1.045 C 11.941,-4.012 11.909,-4.715 11.8,-5.057 11.652,-5.524 11.403,-5.803 11.379,-5.83 7.148,-11.573 6.981,-11.908 6.649,-12.575 6.628,-12.617 6.606,-12.662 6.582,-12.709 6.336,-13.196 5.595,-13.229 5.563,-13.23 H -9.835 c -0.023,-0.003 -0.046,-0.004 -0.069,-0.004" /></g><g
           transform="translate(113.2126,101.2619)"
           id="g688"><path
             id="path690"
             style="fill:#3b3c3c;fill-opacity:1;fill-rule:nonzero;stroke:none"
             d="m 0,0 c 0,0 -3.433,-0.161 -4.878,-0.736 -1.207,-0.481 -1.525,-0.662 -2.115,-1.111 0,0 -0.7,-0.618 -1.254,-1.102 -0.555,-0.483 -2.278,-2.049 -1.88,-2.105 0.397,-0.056 22.167,0 22.167,0 0,0 0.149,-0.011 0.175,0.202 0.027,0.213 0.195,1.14 -0.079,1.591 -0.274,0.45 -2.403,1.98 -2.708,2.148 -0.305,0.168 -1.11,0.636 -1.859,0.732 -0.749,0.097 -4.547,0.336 -4.547,0.336 z" /></g><g
           id="g692"><g
             id="g694" /><g
             id="g722"><g
               style="opacity:0.30000299"
               id="g720"
               clip-path="url(#clipPath698)"><g
                 id="g718"><g
                   id="g716"><g
                     id="g714"><g
                       id="g712"><path
                         id="path710"
                         style="fill:url(#linearGradient708);stroke:none"
                         d="m 108.962,97.773 c 4.076,0.668 8.249,0.889 12.377,0.707 1.278,-0.056 2.558,-0.143 3.833,-0.271 -0.589,0.595 -2.264,1.793 -2.531,1.94 -0.305,0.168 -1.111,0.635 -1.859,0.732 -0.749,0.097 -4.547,0.336 -4.547,0.336 l -3.022,0.045 c 0,0 -3.434,-0.161 -4.879,-0.736 -1.206,-0.481 -1.524,-0.662 -2.114,-1.112 0,0 -0.7,-0.617 -1.255,-1.101 -0.464,-0.405 -1.747,-1.568 -1.919,-1.969 1.925,0.637 3.911,1.101 5.916,1.429" /></g></g></g></g></g></g></g><g
           id="g724"><g
             id="g726" /><g
             id="g738"><g
               id="g736"
               clip-path="url(#clipPath730)"><g
                 id="g734"
                 transform="translate(124.3321,96.606)"><path
                   id="path732"
                   style="fill:#3b3c3c;fill-opacity:1;fill-rule:nonzero;stroke:none"
                   d="m 0,0 c -0.024,-0.193 -0.159,-0.183 -0.159,-0.183 0,0 -19.744,-0.051 -20.104,0 -0.361,0.05 1.202,1.47 1.705,1.909 0.503,0.439 1.138,0.999 1.138,0.999 0.535,0.408 0.823,0.572 1.918,1.008 1.31,0.521 4.424,0.667 4.424,0.667 l 2.741,-0.041 c 0,0 3.444,-0.216 4.123,-0.304 0.68,-0.088 1.41,-0.512 1.686,-0.664 C -2.251,3.239 -0.32,1.851 -0.072,1.442 0.177,1.034 0.024,0.193 0,0 m 1.017,1.394 c -0.274,0.451 -2.404,1.981 -2.708,2.149 -0.305,0.168 -1.111,0.635 -1.86,0.732 -0.748,0.097 -4.546,0.336 -4.546,0.336 l -3.023,0.045 c 0,0 -3.433,-0.161 -4.878,-0.736 -1.206,-0.481 -1.524,-0.662 -2.114,-1.112 0,0 -0.701,-0.617 -1.255,-1.101 -0.554,-0.484 -2.278,-2.049 -1.88,-2.105 0.398,-0.056 22.168,0 22.168,0 0,0 0.148,-0.011 0.175,0.202 0.026,0.213 0.195,1.14 -0.079,1.59" /></g></g></g></g><g
           transform="translate(103.0851,96.2189)"
           id="g740"><path
             id="path742"
             style="fill:#272728;fill-opacity:1;fill-rule:nonzero;stroke:none"
             d="M 0,0 C 0.055,-0.008 0.513,-0.013 1.261,-0.017 L 1.336,1.617 C 0.631,0.967 -0.304,0.043 0,0" /></g><g
           id="g744"><g
             id="g746" /><g
             id="g758"><g
               id="g756"
               clip-path="url(#clipPath750)"><g
                 id="g754"
                 transform="translate(103.3724,96.797)"><path
                   id="path752"
                   style="fill:#272728;fill-opacity:1;fill-rule:nonzero;stroke:none"
                   d="M 0,0 C 0.068,-0.169 0.126,-0.342 0.182,-0.515 0.19,-0.539 0.197,-0.564 0.203,-0.589 0.405,-0.592 0.665,-0.594 0.973,-0.595 L 1.049,1.038 C 0.695,0.713 0.284,0.318 0,0" /></g></g></g></g><g
           transform="translate(104.4565,97.739)"
           id="g760"><path
             id="path762"
             style="fill:#373736;fill-opacity:1;fill-rule:nonzero;stroke:none"
             d="m 0,0 c -0.245,-0.209 -0.806,-0.697 -0.868,-0.813 -0.079,-0.15 0.106,-0.649 0.232,-0.78 0,0 0.067,-0.073 0.173,-0.099 0.069,-0.017 0.483,0.063 0.758,0.119 C 0.26,-1.038 0.163,-0.512 0,0" /></g><g
           transform="translate(104.4565,97.739)"
           id="g764"><path
             id="path766"
             style="fill:#373736;fill-opacity:1;fill-rule:nonzero;stroke:none"
             d="m 0,0 c -0.245,-0.209 -0.806,-0.697 -0.868,-0.813 -0.079,-0.15 0.106,-0.649 0.232,-0.78 0,0 0.067,-0.073 0.173,-0.099 0.069,-0.017 0.483,0.063 0.758,0.119 C 0.26,-1.038 0.163,-0.512 0,0" /></g><g
           id="g768"><g
             id="g770" /><g
             id="g782"><g
               id="g780"
               clip-path="url(#clipPath774)"><g
                 id="g778"
                 transform="translate(103.8595,97.0796)"><path
                   id="path776"
                   style="fill:#373736;fill-opacity:1;fill-rule:nonzero;stroke:none"
                   d="M 0,0 C 0.208,0.172 0.426,0.333 0.649,0.488 0.632,0.545 0.615,0.603 0.597,0.659 0.352,0.45 -0.209,-0.037 -0.271,-0.154 -0.292,-0.193 -0.294,-0.258 -0.284,-0.333 -0.222,-0.204 -0.114,-0.094 0,0" /></g></g></g></g><g
           id="g784"><g
             id="g786" /><g
             id="g798"><g
               style="opacity:0.5"
               id="g796"
               clip-path="url(#clipPath790)"><g
                 id="g794"
                 transform="translate(104.6903,96.7305)"><path
                   id="path792"
                   style="fill:#373736;fill-opacity:1;fill-rule:nonzero;stroke:none"
                   d="m 0,0 c 0.002,-0.081 0.001,-0.162 -0.007,-0.243 -0.017,-0.169 -0.193,-0.198 -0.337,-0.215 -0.178,-0.021 -0.387,-0.036 -0.518,0.109 -0.121,0.134 -0.204,0.3 -0.257,0.471 -0.015,-0.198 0.14,-0.592 0.249,-0.707 0,0 0.067,-0.073 0.173,-0.099 0.07,-0.017 0.483,0.063 0.758,0.12 C 0.048,-0.375 0.028,-0.187 0,0" /></g></g></g></g><g
           transform="translate(114.3392,100.7053)"
           id="g800"><path
             id="path802"
             style="fill:#363436;fill-opacity:1;fill-rule:nonzero;stroke:none"
             d="m 0,0 -0.497,-4.508 1.143,-0.005 c 0.108,2.412 0.197,4.503 0.197,4.503 0,0 -0.064,0.342 0.642,0.528 l -2.069,0.03 C -0.584,0.548 -0.02,0.51 0,0" /></g><g
           id="g804"><g
             id="g806" /><g
             id="g818"><g
               style="opacity:0.5"
               id="g816"
               clip-path="url(#clipPath810)"><g
                 id="g814"
                 transform="translate(125.3488,96.0833)"><path
                   id="path812"
                   style="fill:#6e6c6d;fill-opacity:1;fill-rule:nonzero;stroke:none"
                   d="m 0,0 h -10.999 c 0.196,2.35 0.436,5.118 0.44,5.164 L -10.638,5.17 C -10.642,5.124 -10.882,2.352 -11.078,0 h -11.529 v -0.077 h 11.522 c -0.124,-1.492 -0.229,-2.798 -0.243,-3.109 -0.024,-0.552 -0.157,-4.745 -0.159,-4.787 l 0.08,-0.003 c 10e-4,0.043 0.135,4.235 0.159,4.787 0.013,0.31 0.118,1.619 0.243,3.112 l 11.005,0 z" /></g></g></g></g><g
           id="g820"><g
             id="g822" /><g
             id="g854"><g
               style="opacity:0.39999402"
               id="g852"
               clip-path="url(#clipPath826)"><g
                 id="g850"><g
                   id="g848"><g
                     id="g846"><g
                       id="g844"><path
                         id="path842"
                         style="fill:url(#linearGradient840);stroke:none"
                         d="m 103.092,95.27 0.163,-1.487 20.986,1.209 0.588,0.688 z" /></g></g></g></g></g></g></g><g
           transform="translate(112.8378,94.4601)"
           id="g856"><path
             id="path858"
             style="fill:#006eb7;fill-opacity:1;fill-rule:nonzero;stroke:none"
             d="m 0,0 c 0,-0.315 -0.498,-0.57 -1.112,-0.57 -0.614,0 -1.112,0.255 -1.112,0.57 0,0.314 0.498,0.57 1.112,0.57 C -0.498,0.57 0,0.314 0,0" /></g><g
           transform="translate(112.8009,94.4411)"
           id="g860"><path
             id="path862"
             style="fill:#006eb7;fill-opacity:1;fill-rule:nonzero;stroke:none"
             d="m 0,0 c 0,-0.304 -0.481,-0.551 -1.075,-0.551 -0.594,0 -1.075,0.247 -1.075,0.551 0,0.304 0.481,0.551 1.075,0.551 C -0.481,0.551 0,0.304 0,0" /></g><g
           transform="translate(113.1066,94.4732)"
           id="g864"><path
             id="path866"
             style="fill:#285dab;fill-opacity:1;fill-rule:nonzero;stroke:none"
             d="m 0,0 c 0,0.162 -0.609,0.231 -1.359,0.231 -0.751,0 -1.36,-0.069 -1.36,-0.231 0,-0.162 0.609,-0.293 1.36,-0.293 C -0.609,-0.293 0,-0.162 0,0" /></g><g
           id="g868"><g
             id="g870" /><g
             id="g882"><g
               id="g880"
               clip-path="url(#clipPath874)"><g
                 id="g878"
                 transform="translate(111.0089,94.592)"><path
                   id="path876"
                   style="fill:#285dab;fill-opacity:1;fill-rule:nonzero;stroke:none"
                   d="M 0,0 C 0.317,0.028 0.635,0.038 0.954,0.04 1.284,0.042 1.616,0.034 1.945,0.003 1.718,0.079 1.263,0.113 0.738,0.113 0.025,0.113 -0.56,0.05 -0.616,-0.095 -0.42,-0.03 -0.206,-0.018 0,0" /></g></g></g></g><g
           id="g884"><g
             id="g886" /><g
             id="g898"><g
               id="g896"
               clip-path="url(#clipPath890)"><g
                 id="g894"
                 transform="translate(111.4983,94.2943)"><path
                   id="path892"
                   style="fill:#285dab;fill-opacity:1;fill-rule:nonzero;stroke:none"
                   d="m 0,0 c -0.557,0 -1.009,0.097 -1.009,0.218 0,0.12 0.452,0.171 1.009,0.171 0.557,0 1.009,-0.051 1.009,-0.171 C 1.009,0.097 0.557,0 0,0 m 0.249,0.41 c -0.751,0 -1.36,-0.069 -1.36,-0.231 0,-0.162 0.609,-0.293 1.36,-0.293 0.751,0 1.359,0.131 1.359,0.293 C 1.608,0.341 1,0.41 0.249,0.41" /></g></g></g></g><g
           transform="translate(112.8901,94.4765)"
           id="g900"><path
             id="path902"
             style="fill:#87898c;fill-opacity:1;fill-rule:nonzero;stroke:none"
             d="m 0,0 c 0,-0.05 -0.041,-0.09 -0.092,-0.09 -0.051,0 -0.093,0.04 -0.093,0.09 0,0.05 0.042,0.09 0.093,0.09 C -0.041,0.09 0,0.05 0,0" /></g><g
           transform="translate(123.6541,94.4601)"
           id="g904"><path
             id="path906"
             style="fill:#006eb7;fill-opacity:1;fill-rule:nonzero;stroke:none"
             d="m 0,0 c 0,-0.315 -0.498,-0.57 -1.112,-0.57 -0.614,0 -1.112,0.255 -1.112,0.57 0,0.314 0.498,0.57 1.112,0.57 C -0.498,0.57 0,0.314 0,0" /></g><g
           transform="translate(123.6174,94.4411)"
           id="g908"><path
             id="path910"
             style="fill:#006eb7;fill-opacity:1;fill-rule:nonzero;stroke:none"
             d="m 0,0 c 0,-0.304 -0.481,-0.551 -1.075,-0.551 -0.594,0 -1.075,0.247 -1.075,0.551 0,0.304 0.481,0.551 1.075,0.551 C -0.481,0.551 0,0.304 0,0" /></g><g
           transform="translate(123.9231,94.4732)"
           id="g912"><path
             id="path914"
             style="fill:#285dab;fill-opacity:1;fill-rule:nonzero;stroke:none"
             d="m 0,0 c 0,0.162 -0.609,0.231 -1.36,0.231 -0.75,0 -1.359,-0.069 -1.359,-0.231 0,-0.162 0.609,-0.293 1.359,-0.293 C -0.609,-0.293 0,-0.162 0,0" /></g><g
           id="g916"><g
             id="g918" /><g
             id="g930"><g
               id="g928"
               clip-path="url(#clipPath922)"><g
                 id="g926"
                 transform="translate(121.8253,94.592)"><path
                   id="path924"
                   style="fill:#285dab;fill-opacity:1;fill-rule:nonzero;stroke:none"
                   d="M 0,0 C 0.317,0.028 0.635,0.038 0.953,0.04 1.284,0.042 1.616,0.034 1.945,0.003 1.718,0.079 1.263,0.113 0.738,0.113 0.025,0.113 -0.56,0.05 -0.616,-0.095 -0.42,-0.03 -0.206,-0.018 0,0" /></g></g></g></g><g
           id="g932"><g
             id="g934" /><g
             id="g946"><g
               id="g944"
               clip-path="url(#clipPath938)"><g
                 id="g942"
                 transform="translate(122.3147,94.2943)"><path
                   id="path940"
                   style="fill:#285dab;fill-opacity:1;fill-rule:nonzero;stroke:none"
                   d="m 0,0 c -0.557,0 -1.009,0.097 -1.009,0.218 0,0.12 0.452,0.171 1.009,0.171 0.557,0 1.009,-0.051 1.009,-0.171 C 1.009,0.097 0.557,0 0,0 m 0.249,0.41 c -0.751,0 -1.36,-0.069 -1.36,-0.231 0,-0.162 0.609,-0.293 1.36,-0.293 0.751,0 1.359,0.131 1.359,0.293 C 1.608,0.341 1,0.41 0.249,0.41" /></g></g></g></g><g
           transform="translate(123.7067,94.4765)"
           id="g948"><path
             id="path950"
             style="fill:#87898c;fill-opacity:1;fill-rule:nonzero;stroke:none"
             d="m 0,0 c 0,-0.05 -0.041,-0.09 -0.092,-0.09 -0.051,0 -0.093,0.04 -0.093,0.09 0,0.05 0.042,0.09 0.093,0.09 C -0.041,0.09 0,0.05 0,0" /></g></g></g></g></svg>